<?xml version="1.0" encoding="utf-8"?>
<!-- Generator: Adobe Illustrator 24.1.0, SVG Export Plug-In . SVG Version: 6.00 Build 0)  -->
<svg version="1.1" id="Layer_1" xmlns="http://www.w3.org/2000/svg" xmlns:xlink="http://www.w3.org/1999/xlink" x="0px" y="0px"
	 viewBox="0 0 400 400" style="enable-background:new 0 0 1280 1280;" xml:space="preserve">
<style type="text/css">
	.st0{fill:#f6e2ba;}
	.st1{fill:#e8b4a5;}
	.st2{fill:#FFFFFF;}
</style>
<rect width="1280" height="1280" fill="white"/>
<g>
	<g>
		<polygon class="st0" points="1200,0 1184,0 1168,0 1152,0 1136,0 1120,0 1104,0 1024,80 944,0 928,0 912,0 896,0 880,0 864,0 
			848,0 768,80 688,0 672,0 656,0 640,0 624,0 608,0 592,0 512,80 432,0 416,0 400,0 384,0 368,0 352,0 336,0 256,80 176,0 160,0 
			144,0 128,0 112,0 96,0 80,0 0,80 0,96 0,112 0,128 0,144 128,16 256,144 384,16 512,144 640,16 768,144 896,16 1024,144 1152,16 
			1280,144 1280,128 1280,112 1280,96 1280,80 		"/>
		<polygon class="st0" points="1152,112 1104,160 1024,240 944,160 896,112 848,160 768,240 688,160 640,112 592,160 512,240 
			432,160 384,112 336,160 256,240 176,160 128,112 80,160 0,240 0,256 0,272 0,288 0,304 128,176 256,304 384,176 512,304 640,176 
			768,304 896,176 1024,304 1152,176 1280,304 1280,288 1280,272 1280,256 1280,240 1200,160 		"/>
		<polygon class="st0" points="1152,272 1104,320 1024,400 944,320 896,272 848,320 768,400 688,320 640,272 592,320 512,400 
			432,320 384,272 336,320 256,400 176,320 128,272 80,320 0,400 0,416 0,432 0,448 0,464 128,336 256,464 384,336 512,464 640,336 
			768,464 896,336 1024,464 1152,336 1280,464 1280,448 1280,432 1280,416 1280,400 1200,320 		"/>
		<polygon class="st0" points="1152,432 1104,480 1024,560 944,480 896,432 848,480 768,560 688,480 640,432 592,480 512,560 
			432,480 384,432 336,480 256,560 176,480 128,432 80,480 0,560 0,576 0,592 0,608 0,624 128,496 256,624 384,496 512,624 640,496 
			768,624 896,496 1024,624 1152,496 1280,624 1280,608 1280,592 1280,576 1280,560 1200,480 		"/>
		<polygon class="st0" points="1152,592 1104,640 1024,720 944,640 896,592 848,640 768,720 688,640 640,592 592,640 512,720 
			432,640 384,592 336,640 256,720 176,640 128,592 80,640 0,720 0,736 0,752 0,768 0,784 128,656 256,784 384,656 512,784 640,656 
			768,784 896,656 1024,784 1152,656 1280,784 1280,768 1280,752 1280,736 1280,720 1200,640 		"/>
		<polygon class="st0" points="1152,752 1104,800 1024,880 944,800 896,752 848,800 768,880 688,800 640,752 592,800 512,880 
			432,800 384,752 336,800 256,880 176,800 128,752 80,800 0,880 0,896 0,912 0,928 0,944 128,816 256,944 384,816 512,944 640,816 
			768,944 896,816 1024,944 1152,816 1280,944 1280,928 1280,912 1280,896 1280,880 1200,800 		"/>
		<polygon class="st0" points="1152,912 1104,960 1024,1040 944,960 896,912 848,960 768,1040 688,960 640,912 592,960 512,1040 
			432,960 384,912 336,960 256,1040 176,960 128,912 80,960 0,1040 0,1056 0,1072 0,1088 0,1104 128,976 256,1104 384,976 512,1104 
			640,976 768,1104 896,976 1024,1104 1152,976 1280,1104 1280,1088 1280,1072 1280,1056 1280,1040 1200,960 		"/>
		<polygon class="st0" points="1152,1072 1104,1120 1024,1200 944,1120 896,1072 848,1120 768,1200 688,1120 640,1072 592,1120 
			512,1200 432,1120 384,1072 336,1120 256,1200 176,1120 128,1072 80,1120 0,1200 0,1216 0,1232 0,1248 0,1264 128,1136 256,1264 
			384,1136 512,1264 640,1136 768,1264 896,1136 1024,1264 1152,1136 1280,1264 1280,1248 1280,1232 1280,1216 1280,1200 1200,1120 
					"/>
		<polygon class="st0" points="80,1280 96,1280 112,1280 144,1280 160,1280 176,1280 128,1232 		"/>
		<polygon class="st0" points="336,1280 352,1280 368,1280 400,1280 416,1280 432,1280 384,1232 		"/>
		<polygon class="st0" points="592,1280 608,1280 624,1280 656,1280 672,1280 688,1280 640,1232 		"/>
		<polygon class="st0" points="848,1280 864,1280 880,1280 912,1280 928,1280 944,1280 896,1232 		"/>
		<polygon class="st0" points="1104,1280 1120,1280 1136,1280 1168,1280 1184,1280 1200,1280 1152,1232 		"/>
	</g>
	<g>
		<polygon class="st1" points="48,0 32,0 16,0 0,0 0,16 0,32 0,48 0,64 64,0 		"/>
		<polygon class="st1" points="320,0 304,0 288,0 272,0 256,0 240,0 224,0 208,0 192,0 256,64 		"/>
		<polygon class="st1" points="576,0 560,0 544,0 528,0 512,0 496,0 480,0 464,0 448,0 512,64 		"/>
		<polygon class="st1" points="832,0 816,0 800,0 784,0 768,0 752,0 736,0 720,0 704,0 768,64 		"/>
		<polygon class="st1" points="1264,0 1248,0 1232,0 1216,0 1280,64 1280,48 1280,32 1280,16 1280,0 		"/>
		<polygon class="st1" points="1088,0 1072,0 1056,0 1040,0 1024,0 1008,0 992,0 976,0 960,0 1024,64 		"/>
		<polygon class="st1" points="1024,160 896,32 768,160 640,32 512,160 384,32 256,160 128,32 0,160 0,176 0,192 0,208 0,224 
			64,160 128,96 192,160 256,224 320,160 384,96 448,160 512,224 576,160 640,96 704,160 768,224 832,160 896,96 960,160 1024,224 
			1088,160 1152,96 1216,160 1280,224 1280,208 1280,192 1280,176 1280,160 1152,32 		"/>
		<polygon class="st1" points="1024,320 896,192 768,320 640,192 512,320 384,192 256,320 128,192 0,320 0,336 0,352 0,368 0,384 
			64,320 128,256 192,320 256,384 320,320 384,256 448,320 512,384 576,320 640,256 704,320 768,384 832,320 896,256 960,320 
			1024,384 1088,320 1152,256 1216,320 1280,384 1280,368 1280,352 1280,336 1280,320 1152,192 		"/>
		<polygon class="st1" points="1024,480 896,352 768,480 640,352 512,480 384,352 256,480 128,352 0,480 0,496 0,512 0,528 0,544 
			64,480 128,416 192,480 256,544 320,480 384,416 448,480 512,544 576,480 640,416 704,480 768,544 832,480 896,416 960,480 
			1024,544 1088,480 1152,416 1216,480 1280,544 1280,528 1280,512 1280,496 1280,480 1152,352 		"/>
		<polygon class="st1" points="1024,640 896,512 768,640 640,512 512,640 384,512 256,640 128,512 0,640 0,656 0,672 0,688 0,704 
			64,640 128,576 192,640 256,704 320,640 384,576 448,640 512,704 576,640 640,576 704,640 768,704 832,640 896,576 960,640 
			1024,704 1088,640 1152,576 1216,640 1280,704 1280,688 1280,672 1280,656 1280,640 1152,512 		"/>
		<polygon class="st1" points="1024,800 896,672 768,800 640,672 512,800 384,672 256,800 128,672 0,800 0,816 0,832 0,848 0,864 
			64,800 128,736 192,800 256,864 320,800 384,736 448,800 512,864 576,800 640,736 704,800 768,864 832,800 896,736 960,800 
			1024,864 1088,800 1152,736 1216,800 1280,864 1280,848 1280,832 1280,816 1280,800 1152,672 		"/>
		<polygon class="st1" points="1024,960 896,832 768,960 640,832 512,960 384,832 256,960 128,832 0,960 0,976 0,992 0,1008 0,1024 
			64,960 128,896 192,960 256,1024 320,960 384,896 448,960 512,1024 576,960 640,896 704,960 768,1024 832,960 896,896 960,960 
			1024,1024 1088,960 1152,896 1216,960 1280,1024 1280,1008 1280,992 1280,976 1280,960 1152,832 		"/>
		<polygon class="st1" points="1024,1120 896,992 768,1120 640,992 512,1120 384,992 256,1120 128,992 0,1120 0,1136 0,1152 0,1168 
			0,1184 64,1120 128,1056 192,1120 256,1184 320,1120 384,1056 448,1120 512,1184 576,1120 640,1056 704,1120 768,1184 832,1120 
			896,1056 960,1120 1024,1184 1088,1120 1152,1056 1216,1120 1280,1184 1280,1168 1280,1152 1280,1136 1280,1120 1152,992 		"/>
		<polygon class="st1" points="0,1280 16,1280 32,1280 48,1280 64,1280 128,1216 192,1280 208,1280 224,1280 240,1280 256,1280 
			128,1152 		"/>
		<polygon class="st1" points="256,1280 272,1280 288,1280 304,1280 320,1280 384,1216 448,1280 464,1280 480,1280 496,1280 
			512,1280 384,1152 		"/>
		<polygon class="st1" points="512,1280 528,1280 544,1280 560,1280 576,1280 640,1216 704,1280 720,1280 736,1280 752,1280 
			768,1280 640,1152 		"/>
		<polygon class="st1" points="768,1280 784,1280 800,1280 816,1280 832,1280 896,1216 960,1280 976,1280 992,1280 1008,1280 
			1024,1280 896,1152 		"/>
		<polygon class="st1" points="1024,1280 1040,1280 1056,1280 1072,1280 1088,1280 1152,1216 1216,1280 1232,1280 1248,1280 
			1264,1280 1280,1280 1152,1152 		"/>
	</g>
	<g>
		<polygon class="st2" points="64,0 0,64 0,80 80,0 		"/>
		<polygon class="st2" points="336,0 320,0 256,64 192,0 176,0 256,80 		"/>
		<polygon class="st2" points="592,0 576,0 512,64 448,0 432,0 512,80 		"/>
		<polygon class="st2" points="848,0 832,0 768,64 704,0 688,0 768,80 		"/>
		<polygon class="st2" points="1216,0 1200,0 1280,80 1280,64 		"/>
		<polygon class="st2" points="1104,0 1088,0 1024,64 960,0 944,0 1024,80 		"/>
		<polygon class="st2" points="1024,144 896,16 768,144 640,16 512,144 384,16 256,144 128,16 0,144 0,160 128,32 256,160 384,32 
			512,160 640,32 768,160 896,32 1024,160 1152,32 1280,160 1280,144 1152,16 		"/>
		<polygon class="st2" points="1152,96 1088,160 1024,224 960,160 896,96 832,160 768,224 704,160 640,96 576,160 512,224 448,160 
			384,96 320,160 256,224 192,160 128,96 64,160 0,224 0,240 80,160 128,112 176,160 256,240 336,160 384,112 432,160 512,240 
			592,160 640,112 688,160 768,240 848,160 896,112 944,160 1024,240 1104,160 1152,112 1200,160 1280,240 1280,224 1216,160 		"/>
		<polygon class="st2" points="1024,304 896,176 768,304 640,176 512,304 384,176 256,304 128,176 0,304 0,320 128,192 256,320 
			384,192 512,320 640,192 768,320 896,192 1024,320 1152,192 1280,320 1280,304 1152,176 		"/>
		<polygon class="st2" points="1152,256 1088,320 1024,384 960,320 896,256 832,320 768,384 704,320 640,256 576,320 512,384 
			448,320 384,256 320,320 256,384 192,320 128,256 64,320 0,384 0,400 80,320 128,272 176,320 256,400 336,320 384,272 432,320 
			512,400 592,320 640,272 688,320 768,400 848,320 896,272 944,320 1024,400 1104,320 1152,272 1200,320 1280,400 1280,384 
			1216,320 		"/>
		<polygon class="st2" points="1024,464 896,336 768,464 640,336 512,464 384,336 256,464 128,336 0,464 0,480 128,352 256,480 
			384,352 512,480 640,352 768,480 896,352 1024,480 1152,352 1280,480 1280,464 1152,336 		"/>
		<polygon class="st2" points="1152,416 1088,480 1024,544 960,480 896,416 832,480 768,544 704,480 640,416 576,480 512,544 
			448,480 384,416 320,480 256,544 192,480 128,416 64,480 0,544 0,560 80,480 128,432 176,480 256,560 336,480 384,432 432,480 
			512,560 592,480 640,432 688,480 768,560 848,480 896,432 944,480 1024,560 1104,480 1152,432 1200,480 1280,560 1280,544 
			1216,480 		"/>
		<polygon class="st2" points="1024,624 896,496 768,624 640,496 512,624 384,496 256,624 128,496 0,624 0,640 128,512 256,640 
			384,512 512,640 640,512 768,640 896,512 1024,640 1152,512 1280,640 1280,624 1152,496 		"/>
		<polygon class="st2" points="1152,576 1088,640 1024,704 960,640 896,576 832,640 768,704 704,640 640,576 576,640 512,704 
			448,640 384,576 320,640 256,704 192,640 128,576 64,640 0,704 0,720 80,640 128,592 176,640 256,720 336,640 384,592 432,640 
			512,720 592,640 640,592 688,640 768,720 848,640 896,592 944,640 1024,720 1104,640 1152,592 1200,640 1280,720 1280,704 
			1216,640 		"/>
		<polygon class="st2" points="1024,784 896,656 768,784 640,656 512,784 384,656 256,784 128,656 0,784 0,800 128,672 256,800 
			384,672 512,800 640,672 768,800 896,672 1024,800 1152,672 1280,800 1280,784 1152,656 		"/>
		<polygon class="st2" points="1152,736 1088,800 1024,864 960,800 896,736 832,800 768,864 704,800 640,736 576,800 512,864 
			448,800 384,736 320,800 256,864 192,800 128,736 64,800 0,864 0,880 80,800 128,752 176,800 256,880 336,800 384,752 432,800 
			512,880 592,800 640,752 688,800 768,880 848,800 896,752 944,800 1024,880 1104,800 1152,752 1200,800 1280,880 1280,864 
			1216,800 		"/>
		<polygon class="st2" points="1024,944 896,816 768,944 640,816 512,944 384,816 256,944 128,816 0,944 0,960 128,832 256,960 
			384,832 512,960 640,832 768,960 896,832 1024,960 1152,832 1280,960 1280,944 1152,816 		"/>
		<polygon class="st2" points="1152,896 1088,960 1024,1024 960,960 896,896 832,960 768,1024 704,960 640,896 576,960 512,1024 
			448,960 384,896 320,960 256,1024 192,960 128,896 64,960 0,1024 0,1040 80,960 128,912 176,960 256,1040 336,960 384,912 
			432,960 512,1040 592,960 640,912 688,960 768,1040 848,960 896,912 944,960 1024,1040 1104,960 1152,912 1200,960 1280,1040 
			1280,1024 1216,960 		"/>
		<polygon class="st2" points="1024,1104 896,976 768,1104 640,976 512,1104 384,976 256,1104 128,976 0,1104 0,1120 128,992 
			256,1120 384,992 512,1120 640,992 768,1120 896,992 1024,1120 1152,992 1280,1120 1280,1104 1152,976 		"/>
		<polygon class="st2" points="1152,1056 1088,1120 1024,1184 960,1120 896,1056 832,1120 768,1184 704,1120 640,1056 576,1120 
			512,1184 448,1120 384,1056 320,1120 256,1184 192,1120 128,1056 64,1120 0,1184 0,1200 80,1120 128,1072 176,1120 256,1200 
			336,1120 384,1072 432,1120 512,1200 592,1120 640,1072 688,1120 768,1200 848,1120 896,1072 944,1120 1024,1200 1104,1120 
			1152,1072 1200,1120 1280,1200 1280,1184 1216,1120 		"/>
		<polygon class="st2" points="64,1280 80,1280 128,1232 176,1280 192,1280 128,1216 		"/>
		<polygon class="st2" points="320,1280 336,1280 384,1232 432,1280 448,1280 384,1216 		"/>
		<polygon class="st2" points="576,1280 592,1280 640,1232 688,1280 704,1280 640,1216 		"/>
		<polygon class="st2" points="832,1280 848,1280 896,1232 944,1280 960,1280 896,1216 		"/>
		<polygon class="st2" points="1024,1264 896,1136 768,1264 640,1136 512,1264 384,1136 256,1264 128,1136 0,1264 0,1280 128,1152 
			256,1280 384,1152 512,1280 640,1152 768,1280 896,1152 1024,1280 1152,1152 1280,1280 1280,1264 1152,1136 		"/>
		<polygon class="st2" points="1088,1280 1104,1280 1152,1232 1200,1280 1216,1280 1152,1216 		"/>
	</g>
</g>
</svg>
